<svg xmlns="http://www.w3.org/2000/svg" width="329.004" height="311.875" viewBox="0 0 329.004 311.875"><defs><style>.a{fill:#fff;}.b{fill:none;}.c{fill:#b3b3b3;}.d{fill:#3d8dcc;}.e{fill:#211715;}.f{fill:#645d5c;}</style></defs><path class="a" d="M209.957,69.9a6.783,6.783,0,0,1,4.9-1.091,6.128,6.128,0,0,1,5.1,3.5c1.488,3.261.763,8.861-.881,12.194a17.774,17.774,0,0,1-6.695,7.921,12.925,12.925,0,0,1-6.987,1.457c-.315.657-.516,1.079-.516,1.079-.765,1.606-2.577,4.417-2.577,4.417a56.789,56.789,0,0,1-6.3,7.92,54.87,54.87,0,0,1-12.7,9.138,62.57,62.57,0,0,1-12.841,4.415,47.157,47.157,0,0,1-4.68.66c-10.048.914-18.386-1.7-26.256-8.11-7.506-6.112-10.79-15.771-11.991-26.457-.692-6.162-1.3-12.86-2.2-19.553,0,0-7.833-35.1,33.167-35.1C219.519,32.287,209.957,69.9,209.957,69.9Z"/><path class="a" d="M178.821,194.992c-.891,2.085-1.658,3.843-2.259,5.182l-2.12.41c-2.93-7.4-4.41-11-6.97-17.95-4.93-13.38-13.04-48.93-14.02-60.06,0,0-.069-.774-.173-1.967a36.206,36.206,0,0,0,12.5.9,47.157,47.157,0,0,0,4.68-.66,62.57,62.57,0,0,0,12.841-4.415,54.87,54.87,0,0,0,12.7-9.138c1.121-1.164,2.627-2.951,3.587-4.151,3.909,3.486,6.977,6.68,6.977,6.68s.979.733,2.369,1.745c-.689,2.8-1.506,5.982-1.937,7.507-2.02,7.16-4.47,13.73-6.58,20.17C195.026,155.686,184.442,181.848,178.821,194.992Z"/><path class="b" d="M203.152,12.955a46.712,46.712,0,0,0-31.166-8.617c-15.953,1.034-28.7,7.392-37.156,17.654-4.881,5.924-8.327,14.481-9.582,22.079a78.182,78.182,0,0,0,.942,26.807"/><path class="c" d="M206.992,119.072c.689-2.438,1.327-4.946,1.887-7.541,2.878,2.1,7.573,5.434,8.918,5.883,6.626,2.212,15.1,5.277,21.75,7.681,7.775,2.81,14.305,6.308,20.011,12.29,5.128,5.376,10.249,16.539,14.017,28.362,8.056,25.277,13.322,52.111,13.319,64.178a58.143,58.143,0,0,1-1.847,12.878c-1.666,4.917-3.484,10.107-10.25,15.167-9.583,7.166-25,13.166-33.389,15.944H129.134l-30.3-64.093c-1.249-3.519-1.955-9.872-.843-16.511,2.214-13.217,6.86-29.843,11.039-43.377a65.6,65.6,0,0,1,5-11.1,25.951,25.951,0,0,1,7.854-7.549c7.834-4.967,22.453-10.472,31.182-13.263.213,2.546.39,4.557.39,4.557.979,11.126,9.089,46.68,14.017,60.055,2.559,6.947,4.04,10.546,6.976,17.947l2.118-.41c4.39-9.774,17.609-41.872,23.849-60.923C202.524,132.8,204.971,126.236,206.992,119.072Z"/><path class="d" d="M181.267,189.2c1.489-3.568,3.155-7.625,4.889-11.927l-1.664-6.691c-.97-3.9-4.07-22.45-4.11-23.68,1.03-3.709,2.21-8.039,3.412-11.738-3.905-2.666-8.409-5.378-10.983-7.059-2.638,2.292-4.711,4.171-7.04,6.567l.228.642c1,2.814,2.812,7.43,3.876,9.97-.632,3.246-1.409,6.805-1.815,9.83a172.12,172.12,0,0,0-1.977,23.442c.483,1.513.948,2.882,1.387,4.075,2.559,6.947,4.04,10.546,6.976,17.947l2.118-.41C177.662,197.726,179.312,193.885,181.267,189.2Z"/><path class="e" d="M163.685,135.954c1.2,3.356,2.5,6.681,3.875,9.97v-1.276a195.865,195.865,0,0,0-3.7,29.176c-.134,3.089,4.666,3.082,4.8,0a175.609,175.609,0,0,1,1.864-19.121c.289-1.881.659-3.748,1.032-5.613.195-.98.412-1.959.586-2.943a4.161,4.161,0,0,0-.418-2.616c-1.195-2.927-2.35-5.875-3.414-8.853A2.461,2.461,0,0,0,165.361,133a2.42,2.42,0,0,0-1.676,2.952Z"/><path class="e" d="M181.478,134.526c-.65,2.018-1.252,4.051-1.833,6.09a40.329,40.329,0,0,0-1.62,5.969,16.635,16.635,0,0,0,.509,4.269q1.128,7.206,2.448,14.384c.366,2,.711,4.01,1.2,5.984.736,3,5.366,1.729,4.628-1.276-.979-3.99-1.588-8.092-2.283-12.139q-.6-3.466-1.156-6.941c-.142-.887-.283-1.774-.416-2.662-.046-.312-.089-.624-.136-.936-.069-.459.034.305.026.195a1.761,1.761,0,0,1-.04-.33c.008-.062-.022-.129-.017-.192-.031.427.322-.876.379-1.084q.457-1.648.921-3.3c.64-2.263,1.3-4.52,2.022-6.759.95-2.947-3.683-4.209-4.628-1.276Z"/><path class="e" d="M170.427,148.548c2.778-.109,5.558-.225,8.338-.274a2.4,2.4,0,0,0,0-4.8c-2.78.049-5.56.165-8.338.274a2.4,2.4,0,0,0,0,4.8Z"/><path class="e" d="M165.306,138.665a114.724,114.724,0,0,1,9.2-8.861l-2.908.375c4.4,2.863,8.926,5.52,13.177,8.6a2.419,2.419,0,0,0,3.284-.861,2.455,2.455,0,0,0-.861-3.284c-4.252-3.082-8.78-5.74-13.178-8.6a2.45,2.45,0,0,0-2.908.376,114.551,114.551,0,0,0-9.2,8.861c-2.089,2.271,1.3,5.674,3.394,3.394Z"/><path class="a" d="M225.187,272.237l-47.476-2.158c3.867,12.319,7.528,24,10.055,32.079a5.638,5.638,0,0,1-2.787,6.692l-.566.293.808-.338c12.084-5.041,51.207-22.424,58.625-25.833l-4.566-13.208A32.416,32.416,0,0,1,225.187,272.237Z"/><path class="a" d="M216.17,279.248c-4.154,3.339-7.291,7.869-11.592,12.351-.617.644-3.149,2.333-5.1.827-1.284-.989-1.469-3.476-1-4.491,2.528-5.526,3.563-7.2,5.442-11.07-2.289,2.413-4.075,4.434-6.787,7.175l-2.763,2.793-3.471,3.509s-2.454,2.62-5.114,5.464c-2.829-9.036-6.463-20.621-10.132-32.306,3.319-4.162,6.241-8.857,10.294-12.417a18.32,18.32,0,0,1,10.234-4.814,25.234,25.234,0,0,1,4.749.161q4.506.46,8.982,1.174c5.422.864,11.5,1.878,15.836-1.792,5.62,4.974,10.722,14.79,13.539,23.952a22.3,22.3,0,0,0-2.914,1.7c-.627.429-2.645,2.217-3.312,2.579a46,46,0,0,1-16.549,5.114"/><path class="e" d="M281.631,254.1q7.556,0,15.113-.025l23.885-.038q3.029,0,6.057-.009c3.088,0,3.093-4.8,0-4.8q-7.81,0-15.622.024l-23.744.039q-2.844,0-5.689.009c-3.089,0-3.094,4.8,0,4.8Z"/><path class="e" d="M2.318,254.106c8.082,0,16.164-.047,24.245-.069,1.375,0,2.749-.01,4.123-.01,3.089,0,3.094-4.8,0-4.8-8.218,0-16.436.045-24.654.069q-1.857.006-3.714.01c-3.088,0-3.093,4.8,0,4.8Z"/><path class="e" d="M242.046,276.228A170.1,170.1,0,0,0,262.425,268c7.284-3.52,15.053-7.664,20-14.253,4.169-5.551,5.783-12.475,6.542-19.24.666-5.927-.009-11.814-.832-17.694a313.337,313.337,0,0,0-12.32-51.933c-2.731-8.515-6.026-17.252-11.043-24.713-4.467-6.642-11.094-11.54-18.32-14.84-3.915-1.789-8-3.176-12.042-4.632-4.253-1.53-8.51-3.049-12.786-4.516-.941-.323-1.88-.655-2.827-.96-.561-.181-.406-.193-.141-.025-.183-.116-.4-.2-.589-.307-1-.553-1.947-1.2-2.891-1.834-2.109-1.426-4.174-2.919-6.224-4.429q-.593-.437-1.183-.877a2.415,2.415,0,0,0-3.283.861,2.457,2.457,0,0,0,.861,3.284,103.761,103.761,0,0,0,10.069,7.009,19.59,19.59,0,0,0,3.591,1.448q2.975,1.011,5.935,2.056c4.044,1.422,8.078,2.875,12.109,4.331,7.55,2.728,14.673,6.088,20.371,11.893a37.1,37.1,0,0,1,5.9,8.445,96.053,96.053,0,0,1,5.3,11.726,256.818,256.818,0,0,1,8.266,27.133c2.14,8.287,4.024,16.649,5.5,25.08,2.042,11.652,3.707,23.957-1.132,35.181-3.077,7.136-9.414,11.354-16,14.966a144.638,144.638,0,0,1-20.407,9.025q-2.026.733-4.073,1.413c-2.917.969-1.667,5.606,1.276,4.628Z"/><path class="e" d="M227.968,238.493c4.927-2.089,9.661-4.524,14.473-6.855a2.413,2.413,0,0,0,.861-3.284,2.463,2.463,0,0,0-3.283-.861c-4.812,2.331-9.547,4.766-14.474,6.855a2.407,2.407,0,0,0-.861,3.284,2.477,2.477,0,0,0,3.284.861Z"/><path class="e" d="M151.027,116.16a205.83,205.83,0,0,0-21.294,8.282c-6.706,3.078-13.733,6.729-17.778,13.18-3.844,6.129-5.792,13.325-7.8,20.2-2.462,8.412-4.756,16.884-6.634,25.447-1.926,8.779-4.025,18.4-1,27.194,1,2.9,5.639,1.656,4.629-1.276-2.5-7.252-1.013-15.088.509-22.37,1.7-8.12,3.809-16.152,6.084-24.127,1.979-6.941,3.829-13.931,7.112-20.392,3.151-6.2,8.807-9.612,14.87-12.559a182.051,182.051,0,0,1,22.578-8.946c2.92-.965,1.669-5.6-1.276-4.629Z"/><path class="e" d="M231.151,193.274l7.318,26.786c.813,2.977,5.445,1.713,4.628-1.276L235.779,192c-.813-2.976-5.445-1.712-4.628,1.276Z"/><path class="e" d="M223.607,244.435c-3.41,2.176-7.642,1.691-11.454,1.109-4.715-.72-9.536-1.662-14.317-1.728-9.747-.136-16.147,7.637-21.444,14.767a2.415,2.415,0,0,0,.861,3.283,2.455,2.455,0,0,0,3.283-.861c2.5-3.366,5.095-6.93,8.554-9.386a16.559,16.559,0,0,1,5.31-2.608,17.515,17.515,0,0,1,6.286-.2c4.453.442,8.844,1.278,13.286,1.789,4.129.475,8.457.283,12.057-2.016,2.6-1.657.191-5.813-2.422-4.144Z"/><path class="e" d="M186.548,261.909l-7.34,7.277a2.4,2.4,0,0,0,3.394,3.394l7.34-7.277a2.4,2.4,0,0,0-3.394-3.394Z"/><path class="e" d="M187.228,282.792c3.7-4.326,7.756-8.348,11.8-12.348a2.4,2.4,0,0,0-3.394-3.394c-4.048,4-8.1,8.022-11.805,12.348a2.4,2.4,0,1,0,3.4,3.394Z"/><path class="e" d="M192.589,292.039c2.726-2.755,5.487-5.481,8.162-8.287,2.363-2.479,4.653-5.024,7.059-7.462a2.4,2.4,0,0,0-3.394-3.394c-2.406,2.438-4.7,4.983-7.06,7.462-2.674,2.805-5.435,5.531-8.161,8.287a2.4,2.4,0,0,0,3.394,3.394Z"/><path class="e" d="M216.505,281.557a52.414,52.414,0,0,0,14.245-3.738,22.131,22.131,0,0,0,5.341-3.073c.329-.267.655-.538.983-.806.161-.131.321-.263.483-.393.309-.246-.268.19-.038.032a25.32,25.32,0,0,1,2.99-1.752,2.4,2.4,0,0,0-2.423-4.145,24.915,24.915,0,0,0-4.619,3.038,16.9,16.9,0,0,1-1.428,1.129,22.16,22.16,0,0,1-2.93,1.481,44.369,44.369,0,0,1-12.6,3.427,2.478,2.478,0,0,0-2.4,2.4,2.413,2.413,0,0,0,2.4,2.4Z"/><path class="e" d="M223.17,246.781c3.866,2.885,6.681,7.51,8.922,11.766a68.509,68.509,0,0,1,6,16c.716,3,5.346,1.732,4.629-1.276a73.53,73.53,0,0,0-6.674-17.5c-2.641-4.942-5.923-9.753-10.457-13.135a2.414,2.414,0,0,0-3.283.861,2.456,2.456,0,0,0,.861,3.283Z"/><path class="e" d="M201.122,277.114c-.981,1.958-2,3.9-2.961,5.866a40.916,40.916,0,0,0-2.032,4.384,6.955,6.955,0,0,0-.033,3.9,5.481,5.481,0,0,0,7.5,3.709c2.884-1.147,4.785-3.93,6.747-6.209a61.127,61.127,0,0,1,7.527-7.817,2.417,2.417,0,0,0,0-3.394,2.457,2.457,0,0,0-3.395,0c-4.423,3.6-7.649,8.356-11.63,12.391-.063.063-.405.325-.136.13.287-.209-.313.184-.38.222-.112.064-.571.27-.219.133-.141.055-.712.219-.583.2a.585.585,0,0,1-.609-.109c.232.136-.134-.229.081.095a3.585,3.585,0,0,1-.212-.371c.112.221.045.153,0-.038-.049-.217-.115-.428-.153-.648.078.455.016-.171.009-.325,0-.1.019-.2.01-.3,0,.053-.119.4-.025.178.031-.074.031-.17.057-.248.119-.352-.109.215.075-.177.531-1.13,1.054-2.264,1.6-3.386.943-1.932,1.944-3.834,2.906-5.755a2.459,2.459,0,0,0-.861-3.284,2.422,2.422,0,0,0-3.283.861Z"/><path class="e" d="M185.859,311.12c7.83-3.27,15.592-6.7,23.358-10.121q13.45-5.916,26.867-11.911c3-1.34,5.992-2.675,8.974-4.044a2.418,2.418,0,0,0,.861-3.283,2.456,2.456,0,0,0-3.284-.861c-15.649,7.186-31.447,14.073-47.236,20.944q-3.173,1.382-6.35,2.749-1.329.57-2.659,1.136c-.2.085-1.358.575-.76.323l-1.047.439a2.48,2.48,0,0,0-1.676,2.952,2.416,2.416,0,0,0,2.952,1.677Z"/><path class="a" d="M27.55,213.324c30.789.511,101.073.671,126.168.839a8.788,8.788,0,0,1,8.329,6.14c5.971,18.886,19.4,61.642,25.719,81.855a5.633,5.633,0,0,1-5.4,7.317c-27.2-.1-100.462-.36-128.632-.93a5.62,5.62,0,0,1-5.263-3.963c-5.556-17.964-19.82-63.232-26.392-83.911A5.638,5.638,0,0,1,27.55,213.324Z"/><path class="e" d="M27.55,215.724c14.38.237,28.762.33,43.144.423q25.2.162,50.4.257,10.6.047,21.2.095,4.14.021,8.28.044c3.068.018,6.222-.167,8.25,2.622a14.984,14.984,0,0,1,1.753,4.442l1.413,4.479q1.686,5.346,3.369,10.692,3.912,12.425,7.814,24.851,3.846,12.244,7.685,24.491,1.619,5.164,3.236,10.33c.776,2.48,3.052,6.783-.325,8.327-1.137.52-2.6.294-3.828.29l-3.975-.015-9.171-.034q-10.964-.042-21.926-.092-24.94-.115-49.882-.3c-13.49-.1-26.983-.206-40.471-.469-1.506-.029-2.928-.386-3.617-1.889a32.139,32.139,0,0,1-1.2-3.822q-1.444-4.653-2.9-9.3-3.632-11.616-7.285-23.226Q32.34,245.1,25.113,222.3c-.421-1.326-1.2-2.86-.774-4.241a3.287,3.287,0,0,1,3.211-2.333c3.087-.041,3.095-4.841,0-4.8A8.134,8.134,0,0,0,19.6,220.64a47.188,47.188,0,0,0,1.424,4.621q.786,2.478,1.571,4.957,3.755,11.855,7.491,23.714,7.407,23.493,14.747,47.007c1.1,3.547,1.85,7.463,5.563,9.211,2.806,1.321,6.54.858,9.59.906q10.269.161,20.538.248,25.367.246,50.735.355,22.469.117,44.936.194l4.051.015a13.22,13.22,0,0,0,5.08-.562,8.139,8.139,0,0,0,4.779-5.2c.653-2.148.116-4.154-.528-6.212q-3.466-11.082-6.944-22.162-7.822-24.934-15.675-49.859c-1.013-3.215-1.78-6.721-3.214-9.776-2.032-4.33-6.347-6.314-10.932-6.343q-8.967-.059-17.935-.093-24.9-.112-49.8-.232c-16.192-.089-32.384-.184-48.575-.382q-4.476-.054-8.952-.126C24.46,210.872,24.46,215.672,27.55,215.724Z"/><path class="f" d="M214.191,21.03c7.6,7.829,11.017,15.659,10.625,32.494-.154,6.6-2.271,12.915-4.865,18.777a6.127,6.127,0,0,0-5.1-3.492,6.783,6.783,0,0,0-4.9,1.091l-9.487-1.727-.527-2.087a35.881,35.881,0,0,0-3.656-9.426,24.58,24.58,0,0,0-11.949-10.53s-2.213-.962-3.272-1.287c-4.882-1.5-17.62-2.305-17.62-2.305a140.928,140.928,0,0,0-17.454-.255,11.111,11.111,0,0,0-6.222,1.8c-2.34,1.766-3.285,4.823-4.735,7.4-2.519,4.48-7.97,6.575-9.118,11.678l-1.2.109a78.966,78.966,0,0,1-.815-11.614c-.212-12.228,4.659-24.5,10.649-30.074a46.659,46.659,0,0,1,9.247-9.155,53.373,53.373,0,0,1,32.55-10c11.56.134,23.259,2.915,31.973,12.584Z"/><path class="b" d="M211.292,18.82c6.591,5.909,9.874,12.723,12.083,21.068a41.991,41.991,0,0,1,1.36,12.877c-.243,4.659-.442,15.62-3.817,21.521"/><path class="e" d="M168.465,77.937c-.595-2.18,0-7.133,4.1-7.424,5.406.207,5.5,6.221,3.589,8.986C174.591,81.763,170.179,82.583,168.465,77.937Z"/><path class="e" d="M136.335,77.91c-.544-2.187,0-7.156,3.757-7.448,4.95.207,5.036,6.24,3.286,9.014C141.945,81.747,137.9,82.57,136.335,77.91Z"/><path class="e" d="M152.809,82.776c-.7,1.179-1.366,2.381-1.958,3.616a5.41,5.41,0,0,0-.643,2.129,3.121,3.121,0,0,0,1.051,2.455,4.681,4.681,0,0,0,1.936,1.1,11.041,11.041,0,0,0,1.416.187l-.638-.086.053.008a1.823,1.823,0,0,0,.957.043,1.791,1.791,0,0,0,.892-.285,2.4,2.4,0,0,0,.861-3.284,2.307,2.307,0,0,0-1.434-1.1c-.4-.058-.807-.094-1.211-.145l.638.086a2.4,2.4,0,0,1-.533-.142l.573.242a2.482,2.482,0,0,1-.445-.261l.486.375a2.68,2.68,0,0,1-.371-.343l.376.486a.667.667,0,0,1-.078-.131l.242.573a1.018,1.018,0,0,1-.056-.217l.085.638a1.55,1.55,0,0,1,0-.236l-.086.638a2.415,2.415,0,0,1,.167-.571l-.242.573a37.3,37.3,0,0,1,2.1-3.922,2.4,2.4,0,1,0-4.144-2.423Z"/><path class="e" d="M211.168,71.972a4.9,4.9,0,0,1,4.559-.492,3.228,3.228,0,0,1,2.012,1.748c1.277,2.579.6,6.326-.3,8.962a16.181,16.181,0,0,1-5.087,7.353,8.216,8.216,0,0,1-3.651,1.7,7.141,7.141,0,0,1-4.451-.086,2.471,2.471,0,0,0-3.283.861,2.419,2.419,0,0,0,.861,3.283,13.277,13.277,0,0,0,10.871-.369,17.307,17.307,0,0,0,7.4-7.251,22.153,22.153,0,0,0,3.015-9.679c.219-3.12-.275-6.576-2.494-8.937a9.644,9.644,0,0,0-11.878-1.241c-2.555,1.709-.155,5.869,2.423,4.145Z"/><path class="e" d="M156.163,104.374c.171-.1.347-.182.52-.274.455-.24-.366.134-.077.026.1-.038.2-.078.3-.114a11.751,11.751,0,0,1,1.362-.4c.226-.054.454-.1.682-.143.116-.021.232-.039.348-.059.577-.1-.363.032-.021,0,.5-.046,1.006-.093,1.513-.1a13.853,13.853,0,0,1,1.4.045c.086.007.577.079.186.011l.092.016q.318.052.632.126a20.854,20.854,0,0,1,2.978,1.043,2.409,2.409,0,0,0,2.953-1.676,2.474,2.474,0,0,0-1.677-2.953,19.569,19.569,0,0,0-3.132-1.077,15.992,15.992,0,0,0-10.476,1.388,2.4,2.4,0,0,0,2.423,4.145Z"/><path class="e" d="M184.512,118.5a54.758,54.758,0,0,0,12.982-9.316,52.164,52.164,0,0,0,5.676-6.869,43.719,43.719,0,0,0,3.776-6.151,2.463,2.463,0,0,0-.861-3.284,2.422,2.422,0,0,0-3.283.861c-4.425,9.073-11.925,16.006-20.713,20.615-2.736,1.435-.313,5.579,2.423,4.144Z"/><path class="e" d="M122.935,67.386c1,7.518,1.5,15.1,2.594,22.607a47.075,47.075,0,0,0,5.621,17.2c6.35,10.759,19.026,17.04,31.342,16.881,7.732-.1,15.052-2.357,22.02-5.576a2.419,2.419,0,0,0,.861-3.283,2.455,2.455,0,0,0-3.284-.861c-10.459,4.831-22.839,7.17-33.628,1.953a30.494,30.494,0,0,1-12.5-10.457,40.883,40.883,0,0,1-5.555-15.55c-1.285-7.57-1.657-15.307-2.673-22.919a2.48,2.48,0,0,0-2.4-2.4c-1.163,0-2.572,1.106-2.4,2.4Z"/><path class="e" d="M210.014,13.324A40.313,40.313,0,0,0,187.487,1.1a62.175,62.175,0,0,0-26.415.673,52.6,52.6,0,0,0-22.653,12.008,45.569,45.569,0,0,0-4.691,4.964c-1.228,1.531-2.614,2.909-3.8,4.488a40.622,40.622,0,0,0-5.76,11.433c-3.543,10.5-3.174,21.839-1.215,32.619a2.422,2.422,0,0,0,2.953,1.676,2.453,2.453,0,0,0,1.676-2.952c-1.6-8.8-2.037-18.1.244-26.818a41.055,41.055,0,0,1,4.666-11.216,23.378,23.378,0,0,1,2.883-3.827c1.431-1.513,2.671-3.188,4.116-4.7C150.726,7.714,167.515,3.3,183.5,5.3c8.861,1.107,17.061,4.771,23.124,11.422,2.085,2.288,5.472-1.114,3.394-3.394Z"/><path class="e" d="M223.557,69.865a52.291,52.291,0,0,0,3.428-13.089,62.371,62.371,0,0,0,0-12.454c-.529-6.141-1.948-12.2-5.179-17.516a43.165,43.165,0,0,0-5.915-7.473c-2.15-2.226-5.542,1.17-3.394,3.394a32.6,32.6,0,0,1,7.878,12.361c2.045,6.223,2.372,13.106,2,19.6a45.516,45.516,0,0,1-3.439,13.9,2.416,2.416,0,0,0,1.676,2.952,2.456,2.456,0,0,0,2.952-1.676Z"/><path class="e" d="M163.446,40.138a103.788,103.788,0,0,0-17.364-.26c-4.3.223-8.007,1.548-10.429,5.281-.984,1.518-1.651,3.208-2.512,4.794a14.426,14.426,0,0,1-2.788,3.49c-2.777,2.687-5.781,5.158-6.75,9.086-.74,3,3.887,4.278,4.628,1.276.693-2.807,3.01-4.6,5.027-6.5a24.016,24.016,0,0,0,3.211-3.6,34.47,34.47,0,0,0,2.325-4.349,9.091,9.091,0,0,1,2.524-3.435,8.936,8.936,0,0,1,4.764-1.242c2.552-.132,5.114-.15,7.668-.145a83.9,83.9,0,0,1,9.7.405,2.414,2.414,0,0,0,2.4-2.4,2.457,2.457,0,0,0-2.4-2.4Z"/><path class="e" d="M183.126,48.2a23.124,23.124,0,0,1,9.28,7,31.278,31.278,0,0,1,5.222,11.519c.764,2.991,5.4,1.723,4.629-1.276A35.517,35.517,0,0,0,196.176,52.3a27.385,27.385,0,0,0-10.627-8.237,2.473,2.473,0,0,0-3.284.861,2.42,2.42,0,0,0,.861,3.284Z"/><path class="e" d="M178.034,44.221A12.24,12.24,0,0,0,174.1,37.56a18.163,18.163,0,0,0-10.31-4.555,2.4,2.4,0,0,0-2.4,2.4,2.473,2.473,0,0,0,2.4,2.4c-.643-.081.195.035.312.056.184.033.368.068.551.107q.62.13,1.229.308.582.171,1.149.385c.105.04.21.08.314.123q-.474-.206-.114-.049c.148.069.3.135.445.206a14.482,14.482,0,0,1,1.886,1.088c.164.111.322.229.483.344.4.289-.374-.313-.029-.019.268.228.535.453.79.7a17.349,17.349,0,0,1,1.242,1.358c.108.126-.368-.5-.04-.041.082.114.162.229.239.346q.225.336.423.689c.125.221.242.446.349.676s.129.559-.056-.149c.028.109.085.217.123.323a6.525,6.525,0,0,1,.317,1.246,2.407,2.407,0,0,0,2.952,1.676,2.475,2.475,0,0,0,1.677-2.952Z"/><path class="e" d="M219.012,126.266a30.572,30.572,0,0,1,2.653,4.663,11.781,11.781,0,0,1,1.141,3.126v-1.276q.992-1.36.507-.921.57-.426.256-.211a2.375,2.375,0,0,0-.343.211c-.382.229-.778.436-1.171.644-1.074.566-2.164,1.1-3.255,1.636-2.232,1.092-4.481,2.149-6.718,3.231a2.424,2.424,0,0,0-.485,3.769c2.033,2.188,4.083,4.362,6.064,6.6.588.664,2,1.76,2.043,2.722.027.588-.652,1.295-.972,1.782-2.032,3.1-4.023,6.225-6.012,9.351-5.213,8.194-10.392,16.41-15.662,24.568-2.947,4.559-5.919,9.1-8.962,13.6-1.736,2.566,2.421,4.97,4.145,2.423,10.673-15.77,20.477-32.1,30.952-48a6.215,6.215,0,0,0,1.276-4.091,7.909,7.909,0,0,0-2.319-4.5c-2.319-2.677-4.749-5.253-7.159-7.847l-.486,3.769c3.67-1.775,7.477-3.382,11.007-5.43a4.326,4.326,0,0,0,1.665-1.414,3.665,3.665,0,0,0-.095-3.137,32.307,32.307,0,0,0-3.925-7.689,2.465,2.465,0,0,0-3.284-.861,2.42,2.42,0,0,0-.861,3.284Z"/><path class="e" d="M151.053,122.578c.843,9.371,3.081,18.707,5.163,27.861a313.255,313.255,0,0,0,8.174,30.655c2.3,6.806,5.094,13.451,7.742,20.124a2.474,2.474,0,0,0,2.952,1.676,2.417,2.417,0,0,0,1.677-2.952c-2.466-6.212-5.008-12.4-7.25-18.7-1.509-4.241-2.738-8.586-3.919-12.928q-4.419-16.258-7.654-32.828c-.494-2.527-.962-5.059-1.374-7.6-.17-1.042-.33-2.086-.472-3.132.066.486,0-.033-.027-.226-.026-.211-.052-.422-.076-.633q-.077-.657-.136-1.315a2.464,2.464,0,0,0-2.4-2.4,2.418,2.418,0,0,0-2.4,2.4Z"/><path class="e" d="M206.253,112.346c-1.808,7.763-4.443,15.272-7,22.81-1.916,5.648-3.811,11.294-5.876,16.89-4.264,11.556-8.821,23.007-13.538,34.386-1.766,4.26-3.419,8.227-5.348,12.527a2.475,2.475,0,0,0,.861,3.284,2.419,2.419,0,0,0,3.284-.861c4.071-9.075,7.792-18.319,11.473-27.557,4.546-11.409,8.966-22.882,12.818-34.547,2.811-8.51,5.918-16.913,7.954-25.656.7-3-3.927-4.288-4.628-1.276Z"/><path class="a" d="M130.542,132.208c1-1.479,3.612-5.625,4.684-7.041,1.938-2.569,2.769-5.269,5.783-6.779,2.523-1.268,7.987-1.55,10.729-1.808,2.775-.259,4.922-.3,6.94.867a4.484,4.484,0,0,1,2.234,2.419,3.761,3.761,0,0,1-2.5,4.465c-2.812.861-5.543,1.243-8.412,1.893a8.774,8.774,0,0,0-4.282,1.729c-1.061,1.01-1.874,3.659-2.559,5.713"/><path class="e" d="M132.614,133.419c1.822-2.7,3.653-5.405,5.442-8.123.99-1.506,1.807-3.287,3.324-4.347a11.252,11.252,0,0,1,4.837-1.432c1.748-.247,3.515-.359,5.272-.514,1.818-.161,3.9-.479,5.621.317,1.13.524,2.165,1.517,1.053,2.474a6.853,6.853,0,0,1-2.719.845c-1.389.326-2.791.586-4.188.869-2.558.518-5.532.929-7.411,2.931-1.632,1.74-2.269,4.385-3,6.589-.976,2.938,3.658,4.2,4.628,1.276.577-1.737,1-4.4,2.746-5.135a18.739,18.739,0,0,1,3.371-.839c1.553-.329,3.117-.607,4.667-.956,2.633-.593,5.306-1.284,6.531-3.948a5.811,5.811,0,0,0-1.416-6.987c-3.771-3.282-8.918-2.383-13.48-1.917a29.964,29.964,0,0,0-6.517,1.143,11.29,11.29,0,0,0-5.632,4.363c-2.547,3.563-4.82,7.337-7.272,10.968-1.734,2.567,2.423,4.972,4.144,2.423Z"/><path class="a" d="M135.118,131.462a52.136,52.136,0,0,1,24.043-.485c.849.162,2.607.69,3.133,1.376a5.308,5.308,0,0,1,.742,2.1,5.976,5.976,0,0,1-1.156,3.93l-1.686,1.876a5.415,5.415,0,0,1,3.178,2.524,5.23,5.23,0,0,1-.294,4.991l-1.682,2.153a6.768,6.768,0,0,1,1.359,1.513,5.864,5.864,0,0,1,.33,4.632c-.69,2.33-1.179,4.007-1.956,6.288a20.706,20.706,0,0,1-1.887,4.227,5.416,5.416,0,0,1-3.446,2.564,3.865,3.865,0,0,1-4.313-3.855l-.388-.067c-.8,2.778-1.624,5.578-2.221,7.343-.494,1.445-1.373,3.851-1.983,5.262-.094.227-.436,1.007-.791,1.8-5.91-2.629-13.63-5.838-19.395-8.2l.548-2.825a72.4,72.4,0,0,0,.66-8.659q.347-10.159.7-20.293a8.65,8.65,0,0,1,1.234-4.624,9.586,9.586,0,0,1,5.272-3.574"/><path class="e" d="M124.565,172.21a50.66,50.66,0,0,0,9.812,5.269,112.017,112.017,0,0,0,12.709,4.752c2.964.893,4.231-3.738,1.276-4.628a101.852,101.852,0,0,1-11.878-4.409,49.724,49.724,0,0,1-9.5-5.129,2.416,2.416,0,0,0-3.283.861,2.456,2.456,0,0,0,.861,3.284Z"/><path class="e" d="M135.756,133.776a50.286,50.286,0,0,1,16.651-1.36,28.179,28.179,0,0,1,7.5,1.253c.121.047.691.4.506.174a4.923,4.923,0,0,1,.264.964,4.621,4.621,0,0,1-.49,1.879,2.474,2.474,0,0,0,0,3.395,2.418,2.418,0,0,0,3.394,0,7.843,7.843,0,0,0,.945-8.7c-1.549-2.655-5.581-2.928-8.276-3.31a56.424,56.424,0,0,0-21.766,1.077c-3,.744-1.727,5.375,1.276,4.628Z"/><path class="e" d="M141.983,141.291a59.194,59.194,0,0,1,14.528.574c1.509.214,3.318.571,4.247,1.405a2.6,2.6,0,0,1,.247,3.292,2.422,2.422,0,0,0,.861,3.284,2.45,2.45,0,0,0,3.284-.861,7.5,7.5,0,0,0,.294-7.414,8.705,8.705,0,0,0-5.907-4.01,57.606,57.606,0,0,0-8.263-1.074,46.452,46.452,0,0,0-9.291,0,2.473,2.473,0,0,0-2.4,2.4,2.415,2.415,0,0,0,2.4,2.4Z"/><path class="e" d="M143.14,149.4c3.687.267,7.371.56,11.045.971,2.148.241,6.435.231,6.8,3.15.191,1.52-.569,3.124-1,4.548a49.756,49.756,0,0,1-1.845,5.459c-.477,1.1-1.139,2.639-2.332,3.134a1.42,1.42,0,0,1-1.927-1.365,2.463,2.463,0,0,0-2.4-2.4,2.418,2.418,0,0,0-2.4,2.4,6.5,6.5,0,0,0,2.522,5.027,6.065,6.065,0,0,0,5.636.9c3.939-1.463,5.392-5.731,6.59-9.387,1.119-3.416,2.969-7.56,1.284-11.078a8.57,8.57,0,0,0-3.607-3.656,15.417,15.417,0,0,0-5.592-1.334c-4.248-.511-8.51-.864-12.776-1.173a2.421,2.421,0,0,0-2.4,2.4,2.446,2.446,0,0,0,2.4,2.4Z"/><path class="e" d="M148.3,180.406a57.466,57.466,0,0,0,4.02-10.818c1.048-3.513,2.013-7.051,3.086-10.556.905-2.961-3.726-4.227-4.629-1.276-1.045,3.414-1.987,6.86-3,10.283-.45,1.512-.905,3.023-1.427,4.512a38.226,38.226,0,0,1-2.19,5.432c-1.464,2.72,2.678,5.147,4.144,2.423Z"/><path class="e" d="M134.479,129.149a11.535,11.535,0,0,0-7.111,5.366c-1.658,3.206-1.231,7.338-1.351,10.835q-.2,5.693-.393,11.384a97.9,97.9,0,0,1-.685,11.241,2.477,2.477,0,0,0,1.676,2.952,2.418,2.418,0,0,0,2.952-1.676c1.041-6.889.907-13.981,1.147-20.932q.09-2.6.179-5.195a37.062,37.062,0,0,1,.226-4.762c.4-2.418,2.3-3.919,4.637-4.584,2.965-.846,1.7-5.479-1.277-4.629Z"/><path class="e" d="M178.269,63.644,180.93,66.1a2.518,2.518,0,0,0,1.7.7,2.678,2.678,0,0,0,1.7-.7,2.4,2.4,0,0,0,0-3.394l-2.662-2.451a2.513,2.513,0,0,0-1.7-.7,2.678,2.678,0,0,0-1.7.7,2.4,2.4,0,0,0,0,3.394Z"/><path class="e" d="M63.666,141.3a12.289,12.289,0,0,0,5.041-4.2,8.694,8.694,0,0,0,1.136-7.637c-2.5-6.857-11.244-4.324-16.035-1.714a11.03,11.03,0,0,0-3.7,2.771,3.609,3.609,0,0,0,.245,4.715c2.2,2.136,5.525,1.13,8.033.259,5.629-1.954,11.95-5.366,14.231-11.224a8.03,8.03,0,0,0-1.28-8.158,10.346,10.346,0,0,0-7.895-3.294c-3.221-.027-6.5.935-9.594,1.765a41.589,41.589,0,0,0-7.006,2.5,28.933,28.933,0,0,0-6.171,4.043c-2.1,1.758-5.355,4.393-3.716,7.47,1.343,2.521,4.6,2.6,7.043,2.145a62.959,62.959,0,0,0,7.991-2.013,57.279,57.279,0,0,0,14.627-7.391c2.452-1.682,4.9-3.381,6.391-6.034a9.225,9.225,0,0,0,.346-8.928c-2.778-5.109-10.009-4.949-14.93-4.248a71.654,71.654,0,0,0-18.226,5.384,34.95,34.95,0,0,0-7.565,4.333,10.73,10.73,0,0,0-4.153,5.477c-.5,1.954-.034,4.193,1.832,5.2a6.656,6.656,0,0,0,3.908.515c3.889-.445,7.6-2,11.164-3.539a136.83,136.83,0,0,0,13.077-6.563q3.272-1.845,6.453-3.845a35.62,35.62,0,0,0,5.858-4.1c3.316-3.2,5.711-10.03,1.483-13.52-1.905-1.572-4.463-2.04-6.85-2.3a25.076,25.076,0,0,0-7.037.259,74.182,74.182,0,0,0-17.6,5.444A44.194,44.194,0,0,0,33.694,98.9a2.464,2.464,0,0,0-.861,3.283,2.421,2.421,0,0,0,3.284.861C42.09,98.86,49,96.545,56.039,94.864a26.06,26.06,0,0,1,9.195-.9,11.74,11.74,0,0,1,3.279.785,4.847,4.847,0,0,1,.638.365c-.389-.273.333.347.134.11-.152-.183.213.369.234.421a2.813,2.813,0,0,1,.155.684c.266,2.576-1.643,4.931-3.635,6.293-2.423,1.656-4.915,3.21-7.443,4.7a133.186,133.186,0,0,1-16.2,8.277,43.546,43.546,0,0,1-7.385,2.48c-.262.057-.525.106-.789.155-.093.018-.188.03-.281.046-.35.059.588-.046.012,0-.4.028-.783.045-1.18.042-.607,0,.035.033.04.022a1.769,1.769,0,0,1-.455-.116c.189.157.484.26.149.041.143.093.392.385.1.027l.617,1.059c-.015-.043-.29-.763-.124-.256-.022-.065.023-.781-.045-.264a1.8,1.8,0,0,1,.25-.782,7.763,7.763,0,0,1,1.941-2.183,29.493,29.493,0,0,1,7.369-4.2,77.836,77.836,0,0,1,8.851-3.04,53.94,53.94,0,0,1,8.343-1.872c3.47-.439,11.687-.422,9.423,5.377-1,2.565-3.535,4.062-5.708,5.524a60.153,60.153,0,0,1-7.084,4.145,45.6,45.6,0,0,1-6.968,2.7q-1.943.582-3.922,1.031a17.313,17.313,0,0,1-3.761.683,4.251,4.251,0,0,1-.83-.142l-.11-.063a.774.774,0,0,1,.415.533c.289.957-.346.725.271.33A12.2,12.2,0,0,0,42.95,125.5c.537-.492,1.087-.975,1.66-1.424a23.836,23.836,0,0,1,5.685-3.3,49.946,49.946,0,0,1,7-2.112c2.73-.665,6.021-1.728,8.764-.575a3.45,3.45,0,0,1,1.865,5c-1.14,2.4-3.394,4.05-5.623,5.359a28.975,28.975,0,0,1-4.78,2.273q-1.237.448-2.509.795a5.509,5.509,0,0,1-.915.226c.219-.02-.727.081-.5-.045.041-.023.112.2.146.145q-.334,2.189.3,1.428.351-.25.712-.488A21.436,21.436,0,0,1,57,131.5a18.692,18.692,0,0,1,4.727-1.557c1.082-.207,2.623-.388,3.347.57a3.218,3.218,0,0,1,.327,2.369,6.262,6.262,0,0,1-1.515,2.694c-.036.041-.576.527-.16.2a5.127,5.127,0,0,1-.558.363c-.622.371-1.281.684-1.922,1.02-2.736,1.436-.313,5.581,2.423,4.145Z"/></svg>