
<svg xmlns="http://www.w3.org/2000/svg" width="364.901" height="390.679" viewBox="0 0 364.901 390.679"><defs><style>.a{fill:#fff;}.b{fill:#3d8dcc;}.c{fill:#b3b3b3;}.d{fill:#211715;}.e{fill:#645d5c;}</style></defs><path class="a" d="M219.068,63.294a5.746,5.746,0,0,1,4.157-1.522,5.336,5.336,0,0,1,4.794,2.663c1.629,2.825,1.56,8.031.467,11.252-.774,2.281-2.043,5.77-5.1,8.272a6.062,6.062,0,0,1-5.755,1.174,43.872,43.872,0,0,1-8.411,14.091,35.373,35.373,0,0,1-17.805,11,37.082,37.082,0,0,1-9.188,1.119,58.376,58.376,0,0,1-8.468-1.095c-6.963-1.208-13.211-4.978-18.524-10.939a43.792,43.792,0,0,1-8.4-14.132,6.111,6.111,0,0,1-5.662-1.214c-3.058-2.5-4.327-5.991-5.1-8.272-1.093-3.221-1.162-8.427.467-11.252a5.338,5.338,0,0,1,4.794-2.663,5.744,5.744,0,0,1,4.157,1.522s-7.6-38.266,37-38.266S219.068,63.294,219.068,63.294Z"/><path class="a" d="M184.2,181.913c4.029-10.061,5.378-14.291,8.9-25.117,5.157-15.842,9.95-33.266,13.616-49.551,0,0,0-2.65,0-5.454a35.409,35.409,0,0,1-15.31,8.429,37.082,37.082,0,0,1-9.188,1.119,58.376,58.376,0,0,1-8.468-1.095,30.828,30.828,0,0,1-15.8-8.149c0,2.182,0,5.15,0,5.15,3.666,16.285,8.46,33.709,13.617,49.551,3.525,10.826,4.874,15.056,8.893,25.117"/><path class="b" d="M175.348,131.963a14.918,14.918,0,0,0-.4-2.158c-.1-.41-.19-.82-.28-1.23-.45-2.02-.53-3.06-1.05-5.21l-.238-1.156c2.666-2.439,6.439-5.852,8.6-7.489h.723c2.2,1.672,6.091,5.2,8.762,7.642l-.663,1.473a25.941,25.941,0,0,0-1.28,4.16,17.214,17.214,0,0,0-1.02,4.83c-.01.75,1.779,13.289,3.7,26.738-2.888,8.867-4.335,13.193-8,22.35h-3.726c-3.786-9.478-5.2-13.781-8.3-23.3,1.55-12.84,3.2-25.649,3.2-26.089C175.373,132.337,175.364,132.15,175.348,131.963Z"/><path class="c" d="M180.474,181.913c-4.019-10.061-5.368-14.291-8.893-25.117-5.157-15.842-9.951-33.266-13.617-49.551-1.471.943-3.285,2.206-5.153,3.646-15.285,6.307-29.384,13.18-40.643,21.2-11.85,8.446-27.136,23.155-29.267,36.835-.964,6.188-.27,11.905,2.269,16.457,35.919,0,160.512,0,195.63,0,2.539-4.549,3.233-10.266,2.27-16.454-2.131-13.68-17.417-28.389-29.267-36.835-11.946-8.513-27.088-15.729-43.452-22.35-1.317-.965-2.564-1.816-3.632-2.5-3.666,16.285-8.459,33.709-13.616,49.551-3.525,10.826-4.874,15.056-8.9,25.117Z"/><path class="d" d="M169.715,180.7c-8.237-14.326-16.367-28.724-23.969-43.4q-.42-.811-.839-1.625l-.311-.607-.207-.4q-.135-.391-.117-.03c.083.061-.054.244-.1.289.223-.219.427-.463.641-.691q.65-.69,1.313-1.365c1.658-1.689,3.376-3.318,5.106-4.933a2.422,2.422,0,0,0-.486-3.77q-1.7-.965-3.393-1.933l-1.693-.967-.846-.484q-.777-.517-.126.056l.328,1.211c-.036.63.223-.218.359-.441.205-.337.425-.666.656-.985a19.322,19.322,0,0,1,1.265-1.534,44.733,44.733,0,0,1,3.9-3.792,68.879,68.879,0,0,1,7.981-5.981l-3.526-1.434A587.53,587.53,0,0,0,172.981,168.7c1.6,4.667,3.351,9.274,5.178,13.855a2.476,2.476,0,0,0,2.953,1.676,2.417,2.417,0,0,0,1.676-2.953,481.914,481.914,0,0,1-18.1-56.581q-2.358-9.006-4.41-18.087a2.418,2.418,0,0,0-3.526-1.434,65.574,65.574,0,0,0-12.383,10.012c-1.518,1.622-4.009,4.144-4.134,6.506-.107,2.023,1.478,2.85,3,3.72q2.541,1.452,5.085,2.9l-.485-3.77c-1.614,1.508-3.219,3.026-4.773,4.6-1.466,1.48-3.54,3.125-3.574,5.39a6.854,6.854,0,0,0,1.064,3.168q.783,1.527,1.576,3.049,1.5,2.885,3.029,5.756c4.208,7.911,8.549,15.75,12.955,23.552q3.7,6.552,7.456,13.072c1.539,2.677,5.688.262,4.144-2.423Z"/><path class="d" d="M186.514,182.552a478.891,478.891,0,0,0,18.11-56.582q2.357-9.006,4.41-18.087l-3.526,1.434A68.655,68.655,0,0,1,213.5,115.3a44.464,44.464,0,0,1,3.9,3.792,19.334,19.334,0,0,1,1.266,1.534c.231.319.451.648.656.985.146.24.375,1.058.349.441l.328-1.211q.651-.575-.126-.056l-.846.484-1.692.967-3.384,1.933a2.423,2.423,0,0,0-.486,3.77c1.5,1.4,2.982,2.81,4.431,4.258q1.09,1.091,2.147,2.213c.161.171.316.351.482.518-.043-.044-.206-.224-.11-.289l-.013-.172-.207.4a9.371,9.371,0,0,0-.52,1.012q-2.763,5.367-5.62,10.684-5.91,11.022-12.092,21.894-3.471,6.137-6.991,12.243c-1.544,2.682,2.6,5.1,4.144,2.423q6.674-11.594,13.171-23.286,3.218-5.82,6.357-11.681c2.053-3.838,4.285-7.665,6.071-11.635,1.239-2.756-.422-4.642-2.259-6.537-1.811-1.87-3.7-3.663-5.6-5.444l-.486,3.77,4.865-2.78c1.5-.857,3.244-1.656,3.225-3.661-.022-2.432-2.588-5.029-4.137-6.686a65.132,65.132,0,0,0-12.392-10.012,2.418,2.418,0,0,0-3.526,1.434,585.907,585.907,0,0,1-17.332,60.814c-1.6,4.667-3.356,9.274-5.187,13.854a2.417,2.417,0,0,0,1.676,2.953,2.457,2.457,0,0,0,2.952-1.676Z"/><path class="d" d="M237.782,179.9q.5-11.9.675-23.8c.05-3.09-4.75-3.091-4.8,0q-.191,11.9-.675,23.8c-.13,3.089,4.67,3.083,4.8,0Z"/><path class="d" d="M126.751,156.323q.19,11.9.674,23.8c.13,3.077,4.931,3.093,4.8,0q-.5-11.9-.674-23.8c-.05-3.086-4.85-3.095-4.8,0Z"/><path class="d" d="M214.8,114.15c13.9,5.873,27.79,12.468,39.909,21.564a101.611,101.611,0,0,1,14.887,13.63c4.17,4.685,8.111,10.026,10.123,16.031,2.292,6.836,2.01,15.034-2.4,20.961a2.415,2.415,0,0,0,.861,3.283,2.456,2.456,0,0,0,3.283-.861c4.487-6.029,5.162-14.078,3.783-21.27-1.274-6.651-5.074-12.636-9.193-17.882-8.98-11.436-20.959-20.388-33.563-27.461a251.237,251.237,0,0,0-25.268-12.139,2.481,2.481,0,0,0-3.283.861,2.415,2.415,0,0,0,.861,3.283Z"/><path class="d" d="M148.751,110.006c-14.406,6.086-28.763,12.959-41.2,22.55a103.358,103.358,0,0,0-15.873,14.9c-4.428,5.229-8.477,11.123-10.4,17.774-2.218,7.667-1.639,16.973,3.238,23.527a2.475,2.475,0,0,0,3.284.861,2.418,2.418,0,0,0,.861-3.283c-3.972-5.337-4.587-12.525-3.015-18.86,1.5-6.027,5.113-11.452,9.045-16.167,8.859-10.626,20.123-18.885,32.168-25.547a255.642,255.642,0,0,1,24.321-11.612,2.414,2.414,0,0,0,.861-3.283,2.464,2.464,0,0,0-3.284-.861Z"/><path class="d" d="M175.972,133.349c4.049,0,8.1-.085,12.147-.086a2.4,2.4,0,1,0,0-4.8c-4.049,0-8.1.085-12.147.086a2.4,2.4,0,0,0,0,4.8Z"/><path class="d" d="M171.308,124c.375,1.587.623,3.2.959,4.792a15.665,15.665,0,0,1,.7,3.835c-.072,1.525-.362,3.067-.549,4.58-.885,7.135-1.781,14.268-2.643,21.405a2.413,2.413,0,0,0,2.4,2.4,2.459,2.459,0,0,0,2.4-2.4c.874-7.235,1.783-14.466,2.679-21.7.177-1.428.464-2.894.517-4.334a21.438,21.438,0,0,0-.873-5.064c-.336-1.595-.584-3.205-.959-4.792-.71-3.005-5.339-1.733-4.629,1.276Z"/><path class="d" d="M194.517,158.927c-1-7.039-2.02-14.077-2.989-21.122-.164-1.2-.223-1.618-.363-2.695-.084-.642-.19-1.289-.236-1.935a8.5,8.5,0,0,1,.388-2.811,35.525,35.525,0,0,1,1.558-5.318,2.473,2.473,0,0,0-.861-3.283,2.418,2.418,0,0,0-3.284.861,44.73,44.73,0,0,0-1.855,5.811,14.23,14.23,0,0,0-.761,4.583c.084,1.726.432,3.475.665,5.184,1,7.338,2.063,14.669,3.109,22a2.415,2.415,0,0,0,2.953,1.676,2.463,2.463,0,0,0,1.676-2.952Z"/><path class="d" d="M195.7,122.982c-3.879-3.492-7.624-7.167-11.781-10.334a2.4,2.4,0,0,0-1.849-.242,2.441,2.441,0,0,0-1.434,1.1,2.472,2.472,0,0,0,.861,3.283c.305.233-.54-.427-.076-.058l.351.279q.332.267.658.538.786.653,1.557,1.321c1.115.965,2.216,1.947,3.311,2.935,1.678,1.513,3.328,3.057,5.008,4.569a2.4,2.4,0,0,0,3.394-3.394Z"/><path class="d" d="M172.383,126.376c1.68-1.512,3.33-3.056,5.008-4.569,1.095-.988,2.2-1.97,3.311-2.935q.773-.667,1.557-1.321.327-.271.658-.538l.351-.279c.464-.369-.381.291-.075.058a2.637,2.637,0,0,0,1.1-1.434,2.45,2.45,0,0,0-.241-1.849c-.635-.984-2.216-1.675-3.284-.861-4.157,3.167-7.9,6.842-11.781,10.334a2.416,2.416,0,0,0,0,3.394,2.454,2.454,0,0,0,3.394,0Z"/><path class="a" d="M2.413,386.064V187.632a1.985,1.985,0,0,1,1.756-2.153H360.656a1.986,1.986,0,0,1,1.757,2.153V386.064a1.985,1.985,0,0,1-1.757,2.152H4.169A1.984,1.984,0,0,1,2.413,386.064Z"/><path class="d" d="M4.813,386.064V188.727c0-.127.1-.962,0-1.046.025.021-.912.008-.452.2a8.38,8.38,0,0,0,2.51,0H359.3a5.156,5.156,0,0,0,1.054,0c.795-.181-.712.028-.344-.244-.259.191,0,2.534,0,2.835V385.085c0,.107-.089.885,0,.952-.3-.23,1.031-.019.411-.221a9.923,9.923,0,0,0-2.611,0H5.547a5.756,5.756,0,0,0-1.042,0c-.736.145.253-.329.308.248-.287-3.049-5.09-3.079-4.8,0,.5,5.319,5.091,4.552,8.872,4.552H353.12c2.464,0,4.975.142,7.435,0,5.331-.306,4.258-6.984,4.258-10.678V190.148a16.723,16.723,0,0,0-.133-3.648c-.59-2.567-2.744-3.421-5.027-3.421H6.435c-.726,0-1.465-.04-2.191,0-3.032.169-4.231,2.732-4.231,5.395v197.59C.013,389.152,4.813,389.157,4.813,386.064Z"/><path class="a" d="M90.834,187.792c-2.028-6.015-3.061-15.974,5.544-21.338,4.3-2.678,12.967-4.147,19.724-2.953,6.842,1.21,12.207,5.607,13.427,12.447a73.149,73.149,0,0,1,1.254,13.361c.01,2.974-1.827,5.276-3.618,5.672-2.126.47-4.871-.3-5.482-3.291-.4,3.062-2.123,4.868-4.446,5.376-2.459.538-4.862-1.249-5.424-4.075l-.4-2.008-.173,1.375a4.636,4.636,0,0,1-4.212,4.185c-2.711.074-4.485-1.516-5.116-4.26l-.452-1.97-.212,1.145c-.459,2.486-1.545,3.726-3.313,4.248a4.213,4.213,0,0,1-4.462-1.872,36.416,36.416,0,0,1-2.64-6.042"/><path class="d" d="M117.033,180.33c.766,3.831,1.465,7.676,2.236,11.507a6.8,6.8,0,0,0,12.814,1.881c1.2-2.275,1.138-4.7,1.041-7.2a69.608,69.608,0,0,0-1.382-11.724c-1.689-7.933-8.739-12.8-16.443-13.822a36.995,36.995,0,0,0-13.074.71,20.908,20.908,0,0,0-10.244,5.2c-5.706,5.647-5.855,14.35-3.461,21.553.969,2.917,5.606,1.667,4.628-1.276-1.571-4.728-2.207-10.186.48-14.67,3.286-5.485,10.551-6.837,16.446-6.99,6.028-.157,12.635,1.411,15.771,7.077,1.341,2.423,1.665,5.328,2,8.039q.338,2.724.459,5.469c.078,1.728.421,3.794-.451,5.375a3.233,3.233,0,0,1-1.072,1.144,2.442,2.442,0,0,1-1.254.077,1.521,1.521,0,0,1-1.184-.667,5.132,5.132,0,0,1-.528-1.852c-.736-3.7-1.416-7.406-2.155-11.1a2.4,2.4,0,1,0-4.629,1.276Z"/><path class="d" d="M119.368,191.052a12.017,12.017,0,0,1-.364,1.6q-.151.4.006.031c-.057.127-.117.252-.182.375-.095.179-.209.345-.309.52-.157.222-.149.217.026-.015-.081.1-.166.193-.254.285-.13.137-.272.26-.412.387.422-.382-.071.034-.2.109s-.734.351-.177.129a5.621,5.621,0,0,1-.535.183c-.153.044-.905.1-.346.095-.2,0-.4.005-.6-.006.593.031-.188-.077-.333-.116-.447-.123.255.21-.155-.083-.117-.065-.232-.136-.343-.212q.279.231.082.064a6.393,6.393,0,0,1-.517-.511c.325.353-.124-.194-.186-.3-.053-.089-.343-.757-.189-.335a6.517,6.517,0,0,1-.2-.669c-.118-.483-.2-.977-.3-1.464q-.31-1.53-.627-3.057-.762-3.707-1.48-7.421a2.424,2.424,0,0,0-2.952-1.677,2.451,2.451,0,0,0-1.676,2.953q.654,3.425,1.36,6.839a52.016,52.016,0,0,0,1.172,5.554,7.561,7.561,0,0,0,4.641,4.912,7.016,7.016,0,0,0,6.024-.883A8.618,8.618,0,0,0,124,192.328a2.468,2.468,0,0,0-1.676-2.953c-1.136-.258-2.761.348-2.953,1.677Z"/><path class="d" d="M108.927,191.72a5.83,5.83,0,0,1-.156.763c-.035.123-.074.243-.118.363.127-.281.133-.3.019-.057-.089.162-.182.319-.274.479q-.229.327.054-.046c-.075.093-.154.182-.237.269s-.166.169-.253.248q-.3.256.077-.044a1.4,1.4,0,0,1-.439.277c-.1.055-.2.107-.306.154.312-.13.344-.15.1-.062-.082.016-.41.166-.494.116.359-.044.4-.056.133-.037-.119,0-.237,0-.356,0s-.23-.009-.345-.019c-.271-.029-.224-.022.143.021a3.691,3.691,0,0,1-.47-.108c-.1-.028-.2-.059-.3-.094q-.364-.14.147.066c0-.013-.481-.271-.526-.3-.39-.219.351.351.008.011-.144-.144-.286-.286-.428-.432-.309-.318.24.437-.046-.077-.092-.165-.2-.322-.284-.491-.05-.1-.1-.2-.144-.3q.195.468.051.093c-.119-.375-.225-.749-.312-1.134-.183-.807-.357-1.617-.531-2.426-.434-2.018-.863-4.037-1.326-6.05a2.42,2.42,0,0,0-2.952-1.676,2.453,2.453,0,0,0-1.676,2.952c.417,1.818.808,3.641,1.2,5.463A26.471,26.471,0,0,0,100.1,194.4a7.076,7.076,0,0,0,3.469,3.815,7.288,7.288,0,0,0,6.072.087A7.117,7.117,0,0,0,113.555,193a2.466,2.466,0,0,0-1.676-2.952c-1.137-.259-2.759.348-2.952,1.676Z"/><path class="d" d="M98.935,190.82a10.024,10.024,0,0,1-.267,1.094c-.03.094-.061.187-.094.28q-.138.36.086-.181c-.071.11-.113.247-.174.363s-.123.224-.191.332c-.335.529.282-.281.015.006-.08.086-.156.175-.24.258-.2.195-.544.3.044,0-.214.109-.446.255-.651.383q-.254.12.3-.122c-.075.03-.151.059-.228.085-.117.04-.235.078-.354.107-.613.151.435.017.022,0-.127,0-.258,0-.386,0-.445,0,.6.159.047,0-.153-.044-.308-.075-.459-.126-.471-.157-.026-.106.059.035-.057-.095-.388-.206-.49-.272-.059-.037-.118-.077-.175-.118-.147-.106-.078-.052.206.16-.03-.1-.283-.26-.36-.341-.392-.42.2.381-.022-.016-.086-.155-.187-.3-.277-.458q-.32-.552-.6-1.125c-.1-.2-.2-.409-.288-.617l-.067-.152q-.156-.363.049.118a4.951,4.951,0,0,1-.416-1.065c-.289-.765-.57-1.532-.877-2.29a2.629,2.629,0,0,0-1.1-1.435,2.4,2.4,0,0,0-3.525,2.711c.6,1.483,1.115,3,1.761,4.46a9.553,9.553,0,0,0,2.683,3.881,6.554,6.554,0,0,0,4.366,1.445,6.682,6.682,0,0,0,4.05-1.77,7.928,7.928,0,0,0,2.183-4.35,2.4,2.4,0,1,0-4.628-1.276Z"/><path class="a" d="M275.137,187.792c2.028-6.015,3.061-15.974-5.545-21.338-4.3-2.678-12.967-4.147-19.723-2.953-6.842,1.21-12.208,5.607-13.428,12.447a73.254,73.254,0,0,0-1.253,13.361c-.01,2.974,1.826,5.276,3.617,5.672,2.126.47,4.871-.3,5.483-3.291.4,3.062,2.123,4.868,4.445,5.376,2.459.538,4.863-1.249,5.425-4.075l.4-2.008.173,1.375a4.634,4.634,0,0,0,4.212,4.185c2.711.074,4.484-1.516,5.115-4.26l.453-1.97.212,1.145c.459,2.486,1.545,3.726,3.313,4.248a4.211,4.211,0,0,0,4.461-1.872,36.338,36.338,0,0,0,2.641-6.042"/><path class="d" d="M244.309,179.054c-.67,3.35-1.294,6.708-1.95,10.061-.21,1.076-.235,2.61-1.13,3.288a2.828,2.828,0,0,1-1.977.223c-1.161-.509-1.65-2.108-1.664-3.317-.024-1.972.086-3.957.249-5.922a38.9,38.9,0,0,1,1.47-8.971c1.963-5.879,8.022-8.555,13.809-8.882,6.078-.344,13.759.55,18.064,5.349,4.017,4.479,3.376,11.053,1.643,16.271-.977,2.938,3.657,4.2,4.628,1.276,2.042-6.145,2.384-13.641-1.484-19.171-4.83-6.908-14.1-8.814-22.063-8.56s-15.766,3.744-18.876,11.5c-1.359,3.391-1.665,7.381-1.974,10.991-.371,4.329-1.065,9.676,2.673,12.8A6.831,6.831,0,0,0,246.416,193a44.667,44.667,0,0,0,1.181-5.763c.442-2.3.881-4.609,1.34-6.909a2.461,2.461,0,0,0-1.676-2.953,2.424,2.424,0,0,0-2.952,1.677Z"/><path class="d" d="M241.974,192.328c.626,4.341,4.448,7.966,9.009,7.081a7.069,7.069,0,0,0,4.866-3.99,27.78,27.78,0,0,0,1.45-5.849q.786-3.82,1.527-7.65a2.4,2.4,0,1,0-4.628-1.276c-.474,2.477-.973,4.95-1.481,7.421q-.314,1.529-.626,3.057c-.091.449-.172.9-.273,1.347a6.306,6.306,0,0,1-.228.786c.154-.422-.136.246-.188.335-.062.1-.511.652-.186.3-.142.154-.291.3-.439.444q-.313.267,0,0c-.111.076-.225.147-.342.212-.421.3.34-.053-.155.083-.145.039-.927.147-.333.116-.2.011-.4.008-.6.006.547.007-.1-.029-.254-.07a5.755,5.755,0,0,1-.627-.208c.536.213.02-.014-.1-.082s-.71-.549-.276-.156c-.14-.127-.281-.25-.411-.387-.089-.092-.173-.187-.255-.285q.262.348.026.015c-.1-.176-.213-.34-.308-.52-.065-.123-.126-.248-.182-.375q.157.368.006-.031a14.12,14.12,0,0,1-.365-1.6,2.415,2.415,0,0,0-2.952-1.677,2.463,2.463,0,0,0-1.676,2.953Z"/><path class="d" d="M252.415,193a6.993,6.993,0,0,0,13.127,2.151,18.783,18.783,0,0,0,1.379-4.724c.449-2.082.89-4.165,1.367-6.241a2.4,2.4,0,0,0-4.629-1.276c-.455,1.981-.877,3.968-1.305,5.954-.181.841-.361,1.683-.551,2.522-.087.386-.2.756-.312,1.134q-.144.375.05-.093c-.045.1-.093.2-.144.3-.086.169-.191.326-.283.491-.286.514.263-.241-.046.077-.142.146-.284.289-.429.432-.351.344.436-.253.009-.011-.045.025-.528.283-.527.3q.513-.205.148-.066c-.1.035-.2.066-.3.094a2.483,2.483,0,0,1-.47.108c.366-.043.414-.05.142-.021-.114.01-.229.016-.344.019-.1,0-.754.075-.375.015q.31.05-.014-.009c-.111-.024-.22-.052-.328-.085-.248-.088-.216-.068.1.062-.1-.047-.206-.1-.306-.154a1.392,1.392,0,0,1-.439-.277q.38.3.077.044c-.088-.079-.172-.162-.254-.248s-.161-.176-.237-.269q.285.374.055.046c-.086-.161-.183-.321-.274-.479-.114-.244-.108-.224.018.057-.043-.12-.083-.24-.118-.363a5.828,5.828,0,0,1-.155-.763,2.407,2.407,0,0,0-2.952-1.676A2.475,2.475,0,0,0,252.415,193Z"/><path class="d" d="M262.407,192.1c.538,2.791,2.34,5.418,5.287,5.994a6.532,6.532,0,0,0,4.725-.887,8.6,8.6,0,0,0,3.025-3.776c.774-1.623,1.334-3.333,2.007-5a2.407,2.407,0,0,0-.242-1.85,2.445,2.445,0,0,0-1.434-1.1,2.471,2.471,0,0,0-2.952,1.676c-.307.758-.589,1.525-.877,2.29a4.894,4.894,0,0,1-.417,1.065c.127-.295.154-.36.083-.194-.033.076-.066.153-.1.228-.093.208-.188.413-.288.617q-.26.531-.552,1.042c-.105.183-.223.358-.325.541-.226.41.339-.338.027-.036-.07.067-.392.31-.408.393.03-.15.458-.315.03-.042-.138.089-.286.158-.427.241q-.249.12.256-.1c-.085.034-.172.066-.259.095-.129.043-.261.081-.394.112-.643.149.392.011-.018.012-.127,0-.26,0-.387,0-.44.015.6.171.083.013-.138-.042-.278-.074-.414-.121-.412-.142-.039-.061.125.063a5.061,5.061,0,0,0-.7-.409c.588.3.244.2.045,0-.084-.083-.16-.172-.24-.258-.287-.31.314.518.049.047-.073-.13-.156-.253-.226-.385-.059-.113-.1-.257-.173-.363q.224.541.086.181c-.033-.093-.065-.186-.094-.28a9.8,9.8,0,0,1-.267-1.094,2.414,2.414,0,0,0-2.952-1.676,2.462,2.462,0,0,0-1.677,2.952Z"/><path class="e" d="M209.832,13.338c-7.616-8.487-17.739-10.832-27.716-10.832a45.215,45.215,0,0,0-27.988,9.2,40.856,40.856,0,0,0-7.888,8.214c-5.113,5-9.193,15.938-8.888,26.781a55.693,55.693,0,0,0,2.031,15.406,6.8,6.8,0,0,1,1.95-.335,5.478,5.478,0,0,1,5.4,3.391c.4-3.3.631-4.4,1.121-7.293.787-4.642,5.586-6.787,7.635-10.935,1.18-2.389,1.882-5.182,3.9-6.882a10,10,0,0,1,5.506-1.92A150.129,150.129,0,0,1,181.61,37.9l17.846,2.608a24.8,24.8,0,0,1,11.5,8.563,36.6,36.6,0,0,1,3.977,8.186l4.137,6.033a5.746,5.746,0,0,1,4.157-1.522,6.921,6.921,0,0,1,1.812.29A48.445,48.445,0,0,0,227,46.7c-.631-14.922-4.11-21.653-11.291-28.141Z"/><path class="d" d="M147.187,61.6a8.664,8.664,0,0,0-9.422-1.41,8.24,8.24,0,0,0-4.32,5.556,20.946,20.946,0,0,0,3.048,16.532c2.132,3.172,5.489,6.024,9.568,5.495a2.479,2.479,0,0,0,2.4-2.4,2.414,2.414,0,0,0-2.4-2.4c-2.969.385-4.935-2.066-6.222-4.441a17.065,17.065,0,0,1-2.088-6.5c-.194-2.259-.151-4.919,1.126-6.8-.365.536.617-.563.357-.368a2.984,2.984,0,0,1,1.275-.58,3.65,3.65,0,0,1,3.284.711c2.3,2.051,5.7-1.333,3.394-3.394Z"/><path class="d" d="M175.81,95.788a15.552,15.552,0,0,0,7.485,1.743,12.286,12.286,0,0,0,7.656-2.3,2.4,2.4,0,0,0,0-3.394,2.475,2.475,0,0,0-3.394,0c.82-.639-.1.028-.359.167-.206.107-.768.274-.039.041-.207.067-.408.157-.616.224a14.832,14.832,0,0,1-1.723.393s.532-.059-.025,0q-.253.025-.507.042c-.408.026-.817.036-1.225.034q-.549,0-1.1-.04c-.168-.011-.335-.024-.5-.041-.1-.01-.191-.02-.286-.032q-.28-.033.183.024a4.805,4.805,0,0,1-1.61-.357c-.226-.068-.446-.149-.668-.225-.56-.191.474.231-.032-.008q-.414-.2-.818-.409a2.4,2.4,0,1,0-2.423,4.145Z"/><path class="d" d="M181.836,78.466a34.276,34.276,0,0,1,.8,3.648l-.086-.638a2.181,2.181,0,0,1,.014.5l.086-.638a1.167,1.167,0,0,1-.056.226l.242-.573a.9.9,0,0,1-.08.146l.376-.486a.83.83,0,0,1-.12.117l.486-.375a2.343,2.343,0,0,1-.289.153l.573-.242a2.11,2.11,0,0,1-.487.142l.638-.086a1.941,1.941,0,0,1-.457,0l.638.085c-.172-.024-.341-.066-.514-.089a1.823,1.823,0,0,0-.957-.043,1.8,1.8,0,0,0-.892.285,2.4,2.4,0,0,0-.861,3.284,2.3,2.3,0,0,0,1.434,1.1c.44.059.866.169,1.313.189a4.286,4.286,0,0,0,2-.483,2.992,2.992,0,0,0,1.625-1.96,4.69,4.69,0,0,0-.017-2.052c-.2-1.175-.471-2.34-.773-3.493a2.4,2.4,0,0,0-2.952-1.676,2.426,2.426,0,0,0-1.434,1.1,2.518,2.518,0,0,0-.242,1.849Z"/><path class="d" d="M162.981,68c-.609,1.979-.212,6.533,3.538,6.921,4.958-.03,5.221-5.536,3.553-8.124C168.705,64.672,164.688,63.79,162.981,68Z"/><path class="d" d="M202.83,68c.609,1.98.212,6.534-3.538,6.921-4.957-.03-5.221-5.536-3.553-8.125C197.105,64.672,201.123,63.791,202.83,68Z"/><path class="d" d="M220.765,64.991a3.61,3.61,0,0,1,3.116-.747,3.108,3.108,0,0,1,1.443.616c-.27-.2.717.9.357.368,1.276,1.882,1.32,4.534,1.126,6.8a17.1,17.1,0,0,1-2.087,6.5c-1.288,2.375-3.252,4.827-6.223,4.441a2.413,2.413,0,0,0-2.4,2.4,2.461,2.461,0,0,0,2.4,2.4c6.659.864,10.732-6.348,12.395-11.726,1.485-4.8,1.454-12.316-3.253-15.4a8.618,8.618,0,0,0-10.268.953c-2.31,2.061,1.094,5.446,3.394,3.394Z"/><path class="d" d="M211.529,11.641C200.912-.035,183.02-2.2,168.4,1.935a45.4,45.4,0,0,0-19.583,11.278,43.008,43.008,0,0,0-4.049,4.668c-.961,1.284-2.1,2.418-3.02,3.749A37.187,37.187,0,0,0,137,31.859a55.818,55.818,0,0,0-.326,29.481c.76,2.992,5.391,1.724,4.629-1.276a51.838,51.838,0,0,1-.5-23.864,37.591,37.591,0,0,1,3.69-9.9,21.719,21.719,0,0,1,2.4-3.57c1.139-1.329,2.189-2.724,3.347-4.039a44.273,44.273,0,0,1,3.7-3.728,26.609,26.609,0,0,1,3.438-2.633,43.044,43.044,0,0,1,9.455-4.857A47.6,47.6,0,0,1,187.912,5.2a31.256,31.256,0,0,1,20.223,9.837c2.082,2.29,5.469-1.112,3.394-3.394Z"/><path class="d" d="M227.7,61.34a55.075,55.075,0,0,0,1.724-11.448,67.331,67.331,0,0,0-.757-11.319,35.155,35.155,0,0,0-5.474-15.215,38.206,38.206,0,0,0-5.786-6.5c-2.282-2.073-5.687,1.311-3.394,3.394a28.756,28.756,0,0,1,7.7,10.377c2.228,5.5,2.867,11.689,2.925,17.58a47.676,47.676,0,0,1-1.568,11.85c-.733,3,3.894,4.28,4.628,1.276Z"/><path class="d" d="M181.61,35.5c-3.2-.209-6.416-.161-9.616-.1a55.652,55.652,0,0,0-9.3.637,10.106,10.106,0,0,0-5.661,2.965,18.585,18.585,0,0,0-2.976,5.316,14.7,14.7,0,0,1-2.822,4.4c-1.2,1.282-2.451,2.49-3.517,3.887-2.638,3.456-2.841,8.186-3.361,12.364a2.413,2.413,0,0,0,2.4,2.4,2.459,2.459,0,0,0,2.4-2.4c.2-1.6.451-3.187.726-4.774a10.42,10.42,0,0,1,1.419-4.4c1.8-2.654,4.559-4.482,6.11-7.352.876-1.62,1.4-3.408,2.316-5.009a5.372,5.372,0,0,1,3.852-2.685,41.157,41.157,0,0,1,7.916-.534c3.366-.076,6.755-.134,10.117.086a2.4,2.4,0,0,0,0-4.8Z"/><path class="d" d="M198.818,42.826c.51.2.615.238.971.4q.645.288,1.274.606a25.831,25.831,0,0,1,2.447,1.412,16.329,16.329,0,0,1,1.917,1.417,23.717,23.717,0,0,1,2.131,2.051c2.366,2.577,3.822,5.91,5.059,9.19a2.467,2.467,0,0,0,2.952,1.676,2.418,2.418,0,0,0,1.676-2.952c-1.552-4.115-3.29-8.038-6.293-11.308A28.421,28.421,0,0,0,200.094,38.2a2.419,2.419,0,0,0-2.953,1.676,2.455,2.455,0,0,0,1.677,2.952Z"/><path class="d" d="M194,38.82a11.206,11.206,0,0,0-3.659-6.067,16.625,16.625,0,0,0-9.489-4.08,2.4,2.4,0,0,0-2.4,2.4,2.47,2.47,0,0,0,2.4,2.4c.272.033.234.026-.116-.019.114.016.228.033.342.052.167.028.334.058.5.092q.563.113,1.117.268.53.149,1.046.338c.1.035.191.071.286.108q.36.145-.156-.069a2.17,2.17,0,0,0,.405.182,13.14,13.14,0,0,1,1.718.972c.13.088.256.181.385.27.471.324-.363-.3-.015-.017.229.19.456.379.674.582a13.283,13.283,0,0,1,1.14,1.22c.288.341-.354-.488-.1-.13.085.118.172.235.253.356q.207.3.39.62c.114.2.222.4.321.61.04.085.075.173.117.256-.378-.747-.149-.359-.075-.155a5.843,5.843,0,0,1,.287,1.087,2.408,2.408,0,0,0,2.952,1.676A2.47,2.47,0,0,0,194,38.82Z"/><path class="d" d="M143.416,82.54c4,12.924,13.053,25.294,26.528,29.275a52.171,52.171,0,0,0,11.07,1.865,34.062,34.062,0,0,0,11.774-1.359,38.793,38.793,0,0,0,16.669-9.843,48.416,48.416,0,0,0,11.58-19.938c.915-2.958-3.717-4.223-4.629-1.276C212.882,92.657,205.2,102.9,193.669,106.99a33.083,33.083,0,0,1-9.664,1.887,42.655,42.655,0,0,1-10.366-1.09A29.936,29.936,0,0,1,158.1,98.873a43.539,43.539,0,0,1-10.061-17.609c-.911-2.942-5.546-1.687-4.628,1.276Z"/></svg>